/* XPM */
static char *d8074c879fcc4a01d8ee04a284e0eb87[] = {
/* columns rows colors chars-per-pixel */
"64 64 124 2 ",
"   c #470235",
".  c #4A0436",
"X  c #4C0739",
"o  c #4E0B3B",
"O  c #510D3E",
"+  c #510F40",
"@  c #541343",
"#  c #571846",
"$  c #5B1C4A",
"%  c #5E214E",
"&  c #642653",
"*  c #682657",
"=  c #652A55",
"-  c #6C265A",
";  c #6C2A5B",
":  c #72265E",
">  c #702A5E",
",  c #6D315E",
"<  c #752561",
"1  c #7B2565",
"2  c #7B2965",
"3  c #7E2468",
"4  c #7D2C68",
"5  c #753565",
"6  c #743C66",
"7  c #773F68",
"8  c #7B3E6B",
"9  c #774169",
"0  c #78416A",
"q  c #8F1F74",
"w  c #931F76",
"e  c #961E78",
"r  c #9C1B7C",
"t  c #84236B",
"y  c #89216F",
"u  c #842B6D",
"i  c #88296F",
"p  c #83326E",
"a  c #8C2172",
"s  c #872F70",
"d  c #8C2C73",
"f  c #912175",
"g  c #912B76",
"h  c #952579",
"j  c #942B79",
"k  c #873472",
"l  c #8B3474",
"z  c #853B72",
"x  c #8A3A76",
"c  c #8F3478",
"v  c #8F3A79",
"b  c #94347C",
"n  c #94397C",
"m  c #864476",
"M  c #8E437B",
"N  c #864B78",
"B  c #8E487E",
"V  c #92427E",
"C  c #914A7F",
"Z  c #87547A",
"A  c #88547B",
"S  c #8C5D7F",
"D  c #983F83",
"F  c #964180",
"G  c #994283",
"H  c #934981",
"J  c #9A4885",
"K  c #9E4F8C",
"L  c #8D5C82",
"P  c #965185",
"I  c #985187",
"U  c #9C518A",
"Y  c #965888",
"T  c #9C5A8C",
"R  c #9F5B90",
"E  c #A05A8F",
"W  c #A15A91",
"Q  c #906185",
"!  c #946189",
"~  c #9C618F",
"^  c #98688F",
"/  c #9E6592",
"(  c #A36495",
")  c #A46B97",
"_  c #A66498",
"`  c #A66E9A",
"'  c #AA6E9D",
"]  c #A9759D",
"[  c #AB7A9F",
"{  c #AE7AA3",
"}  c #B07AA4",
"|  c #AD80A4",
" . c #B08FA7",
".. c #B385AA",
"X. c #B58CAD",
"o. c #B191A9",
"O. c #B68FB0",
"+. c #BA8AB0",
"@. c #BB92B3",
"#. c #BF9AB8",
"$. c #BDA1B8",
"%. c #C29EBB",
"&. c #C2A3BC",
"*. c #C6A7C1",
"=. c #C6A9C2",
"-. c #CAACC3",
";. c #CDADC8",
":. c #C9B2C5",
">. c #CEB0CA",
",. c #D1B6CE",
"<. c #D2BBCF",
"1. c #D4BCD0",
"2. c #D5C3D2",
"3. c #D9CAD7",
"4. c #DDC9DA",
"5. c #E2D3DF",
"6. c #E0CFE0",
"7. c #E3D3E2",
"8. c #E7DDE5",
"9. c #E8DEE7",
"0. c #E9DEE8",
"q. c #ECE2EA",
"w. c #F0E4ED",
"e. c None",
/* pixels */
"e.e.e.e.e.e.e.e.e.e.e.e.e.e.e.e.e.e.e.e.e.e.e.e.e.e.e.e.e.e.e.e.e.e.e.e.e.e.e.e.e.e.e.e.e.e.e.e.e.e.e.e.e.e.e.e.e.e.e.e.e.e.e.e.",
"e.e.e.e.e.e.e.e.e.e.e.e.e.e.e.e.e.e.e.e.e.e.e.e.e.e.e.e.e.e.e.e.e.e.e.e.e.e.e.e.e.e.e.e.e.e.e.e.e.e.e.e.e.e.e.e.e.e.e.e.e.e.e.e.",
"e.e.e.e.e.e.e.e.e.e.e.e.e.e.e.e.e.e.e.e.e.e.e.e.e.e.e.e.e.e.e.e.e.e.e.e.e.e.e.e.e.e.e.e.e.e.e.e.e.e.e.e.e.e.e.e.e.e.e.e.e.e.e.e.",
"e.e.e.e.e.e.e.e.e.e.e.e.e.e.e.e.e.e.e.e.e.e.e.e.e.e.e.e.= = = = = = e.e.e.e.e.e.e.e.e.e.e.e.e.e.e.e.e.e.e.e.e.e.e.e.e.e.e.e.e.e.",
"e.e.e.e.e.e.e.e.e.e.e.e.e.e.e.e.e.e.e.e.e.e.e.e.e.= % # + + + + + + + $ % e.e.e.e.e.e.e.e.e.e.e.e.e.e.e.e.e.e.e.e.e.e.e.e.e.e.e.",
"e.e.e.e.e.e.e.e.e.e.e.e.e.e.e.e.e.e.e.e.e.= % + . . # = 6 9 9 9 9 9 6 = # . . + % e.e.e.e.e.e.e.e.e.e.e.e.e.e.e.e.e.e.e.e.e.e.e.",
"e.e.e.e.e.e.e.e.e.e.e.e.e.e.e.e.e.e.e.= $ X . = S o.:.3.8.q.9.9.q.q.9.3.:. .L & . X % e.e.e.e.e.e.e.e.e.e.e.e.e.e.e.e.e.e.e.e.e.",
"e.e.e.e.e.e.e.e.e.e.e.e.e.e.e.e.e.= $ . $ L $.8.w.8.5.4.2.2.2.2.2.2.2.4.5.0.w.5.$.Z # . % e.e.e.e.e.e.e.e.e.e.e.e.e.e.e.e.e.e.e.",
"e.e.e.e.e.e.e.e.e.e.e.e.e.e.e.& = o O Q :.7.5.,.;.&.-.&.;.-.;.&.=.-.-.-.*.*.-.<.5.6.*.Z O + = e.e.e.e.e.e.e.e.e.e.e.e.e.e.e.e.e.",
"e.e.e.e.e.e.e.e.e.e.e.e.e.e.= % . 9 &.4.;.#.#.#.%.%.%.%.%.%.%.%.%.%.%.%.%.%.%.%.#.%.>.4.#., X % e.e.e.e.e.e.e.e.e.e.e.e.e.e.e.e.",
"e.e.e.e.e.e.e.e.e.e.e.e.e.= % X Z ,.;.o.O.O.@.@.@.%.@.@.@.@.+.%.@.@.@.@.@.@.@.O.@.@.O.O.>.>.Z X % e.e.e.e.e.e.e.e.e.e.e.e.e.e.e.",
"e.e.e.e.e.e.e.e.e.e.e.& = % o ^ ;...| ........................+.........................{ O.;.! O % & e.e.e.e.e.e.e.e.e.e.e.e.e.",
"e.e.e.e.e.e.e.e.e.e.= % & o Z %.[ ] [ { [ ] { { { [ { } } } } } } } } } } } { } [ { } } { ] [ %.L + & & e.e.e.e.e.e.e.e.e.e.e.e.",
"e.e.e.e.e.e.e.e.e.& % = # 5 ..` ) ` ` ` ' ' ' ' ' ' ' ' ' ' ' ' ' ' ' ' ' ' ' ` ` ` ` ` ) ) ) ` +.8 @ = & e.e.e.e.e.e.e.e.e.e.e.",
"e.e.e.e.e.e.e.e.e.& & % $ / ] ~ ~ ( ~ ( ( ( ( ( ( _ ( ( _ _ _ _ _ _ _ _ _ _ _ _ ( ( ( ( / / ( ^ ` ` * $ = e.e.e.e.e.e.e.e.e.e.e.",
"e.e.e.e.e.e.e.e.% & & $ 5 ) T Y T T T T T E E E W W W W W W W W W W W W E W T W R T T T R T T T Y _ N $ = & e.e.e.e.e.e.e.e.e.e.",
"e.e.e.e.e.e.e.= & & & % x T C Y P P I I U I I U K U K K K K K K K K K K K K U U U I U I I I P I P Y Y & % * & e.e.e.e.e.e.e.e.e.",
"e.e.e.e.e.e.= % & & & % m H M B C C H V J J J J J J J J J J J J J J J J J J J J J J J J H H C B B B H : % & & & e.e.e.e.e.e.e.e.",
"e.e.e.e.e.e.% = & & * & z B M M V V V V V V V V D D G D D G G D D D D D D G G V V V V V n V M M M B B > & * & & e.e.e.e.e.e.e.e.",
"e.e.e.e.e.& % & & & * * p M z x x x v v n n n n n n n n b b b D b b D n n b n b n n v v v v x x x x x > * * & & & e.e.e.e.e.e.e.",
"e.e.e.e.e.% & = * * * * 4 x k k l l c l c c c b c b b b b b b b b D b b b b b b c c c c c l l l k z x - * - * & & e.e.e.e.e.e.e.",
"e.e.e.e.& = % & & * - - > s p u s d s d l d g g g h j j j j j j j j b r g h g c g g c d d d s s u p u : * - * * & & e.e.e.e.e.e.",
"e.e.e.e.% & = & * - - - - t u u u s d d d d d g g g j h j h h j j j h j h g g g g d d i d i t u u u 2 - - - - * & & e.e.e.e.e.e.",
"e.e.e.% = & & & - - - > - : u t u t t i a a e.e.e.g h r h h h h e h r h h f f a g a a a i t u t u t - - - - - * & & e.e.e.e.e.e.",
"e.e.e.= & & & & e.e.e.: : : 3 t t t t y a e.e.e.e.e.f f r r r r e r e h e f f f a a y y t t t t t 1 : : : - - - & & & e.e.e.e.e.",
"e.e.e.e.e.& & e.e.e.e.e.: < 1 1 t t y t e.e.e.e.e.e.e e r r e r r e r e e f f q q q a t y y t t 1 < < : : - - & * & & e.e.e.e.e.",
"e.e.e.e.e.e.e.e.e.e.e.e.: 1 1 1 t t y e.e.e.e.e.e.e.e e r r r r r r e e e e e f q q q q y y t 3 1 1 1 < : - : - * = & e.e.e.e.e.",
"e.e.e.e.e.e.e.e.e.e.e.< < : 1 3 3 t e.e.e.e.e.e.e.e r r r r r r r r r r r r e w f q y y y y t 3 2 1 < : : : - - * * & e.e.e.e.e.",
"e.e.e.e.e.e.e.e.e.e.e.: < 1 1 3 3 e.e.e.e.e.e.e.e e e r r r r r r r r r r e e w w q q q y t 3 3 1 1 < < : : - & - & & % e.e.e.e.",
"e.e.e.e.e.e.e.e.e.: : < < 1 2 3 e.e.e.e.e.e.e.e e e r r r r r r r r r r r r r e e q q a y t t t 1 1 < < : : : - - = = & e.e.e.e.",
"e.e.e.e.e.e.e.e.e.- : < < 1 2 e.e.e.e.e.e.e.f e e r r r r r r r r r r r r r e e q q q y y t t 3 3 1 1 < : : - - & & & & e.e.e.e.",
"e.e.e.e.e.e.e.- - : : : < 1 e.e.e.e.e.e.e.a q q e r r r r r r r r r r r r r e e q q q y y 3 t 3 1 3 < < : : - - - - & & e.e.e.e.",
"e.e.e.e.e.e.e.- - - : : 1 e.e.e.e.e.e.e.a q f q r r r r r r r r r r r r r r r r q q a a y t t 3 1 1 1 : : : : - * * & & e.e.e.e.",
"e.e.e.e.e.& & - - : : < e.e.e.e.e.e.e.y y f q e r r r r r r r r r r r r r r r r w q a a y t t t 1 1 1 < : : - - * * & & e.e.e.e.",
"e.e.e.e.e.= * - - : : e.e.e.e.e.e.e.t a y a f q r r r r r r r r r r r r r r r r q q a y t t t 1 3 1 1 : : : - - * * & % e.e.e.e.",
"e.e.e.e.& & & - - - e.e.e.e.e.e.e.t t t a a f q q r r r r r r r r r r r r r r r q q y y y t t 3 2 3 1 : : : - - * * & & e.e.e.e.",
"e.e.e.e.& & & * - e.e.e.e.e.e.e.3 t t t a a a f e e e r r r r r r r r r r e e w q a a y t t 3 3 1 1 < : : : - * - & & & e.e.e.e.",
"e.e.e.e.= & & - e.e.e.e.e.e.e.1 3 t t t t a a a q e e e r r r r r r e r e e w w q a y y t t 3 3 1 1 1 : : : : * & & & e.e.e.e.e.",
"e.e.e.e.e.e.e.e.e.e.e.e.e.e.1 3 1 t t t e.e.e.e.f q f e e e r e r e e e e w w a q y y t t t 3 3 1 1 : : : : - - * = & e.e.e.e.e.",
"e.e.e.e.e.e.e.e.e.e.e.e.e.< < 1 1 1 t e.e.e.e.e.a f f e q e e e r e e w f f f a a y t t t t 3 1 1 : 1 : - - - * & & & e.e.e.e.e.",
"e.e.e.e.e.e.e.e.e.e.e.e.: < < 2 1 3 e.e.e.e.e.e.a q a f q e q e q w w q f a a a y y t t t 3 1 1 2 < : : : > * - - & = e.e.e.e.e.",
"e.e.e.e.e.e.e.e.e.e.e.: : < < 2 2 e.e.e.e.e.e.e.t q a q f a f e.q f q f a q a y y t t t 3 3 3 1 < < < : - - * * & & e.e.e.e.e.e.",
"e.e.e.e.e.e.e.e.e.e.- : : : < < 1 e.e.e.e.e.e.t a a a a q e.e.e.e.q a a y y y t t t t 3 3 1 3 < < < : - - - * & & % e.e.e.e.e.e.",
"e.e.e.e.e.e.e.e.e.& * - - : : < 1 e.e.e.e.e.t t t t t y e.e.e.e.e.e.y a y y y t t t t 3 1 1 1 < < : : - - - - & & & e.e.e.e.e.e.",
"e.e.e.e.e.e.e.e.& - * - - : : < < e.e.e.e.t t t t t t e.e.e.e.e.e.e.t y t t t t t 3 3 3 1 1 < < : : : - - - & & & e.e.e.e.e.e.e.",
"e.e.e.e.e.e.e.& = & * - - - : : < < 1 1 1 1 1 3 t t e.e.e.e.e.e.e.y t t t t t t 3 3 3 1 1 : < < : : - - - * & & & e.e.e.e.e.e.e.",
"e.e.e.e.e.e.& & & & & - e.e.e.e.: < < 1 1 1 3 3 3 e.e.e.e.e.e.e.t t t t t t t 1 3 1 3 1 < 1 < : : - - * * = & & e.e.e.e.e.e.e.e.",
"e.e.e.e.e.e.& % & & & e.e.e.e.e.: : < : < 1 1 2 e.e.e.e.e.e.e.t t t 3 t t 1 1 1 1 1 < < < : : : - - - - & & & & e.e.e.e.e.e.e.e.",
"e.e.e.e.e.e.e.& & % e.e.e.e.e.e.: : : : < < 1 e.e.e.e.e.e.e.3 3 3 3 3 3 1 1 3 2 1 1 < < : : : : - - * & & & & e.e.e.e.e.e.e.e.e.",
"e.e.e.e.e.e.e.e.e.e.e.e.e.e.e.e.: - : : : < e.e.e.e.e.e.e.1 2 3 1 1 1 1 1 1 1 < < < < : : : - - - - - & & = e.e.e.e.e.e.e.e.e.e.",
"e.e.e.e.e.e.e.e.e.e.e.e.e.e.e.* * : : : : e.e.e.e.e.e.e.2 2 < 1 1 < 2 < < 1 < < : < : : : - > - e.e.& & & % e.e.e.e.e.e.e.e.e.e.",
"e.e.e.e.e.e.e.e.e.e.e.e.e.e.= * * - - - e.e.e.e.e.e.e.< < < < < < < e.< < < : < : : - : - - * e.e.e.e.& & e.e.e.e.e.e.e.e.e.e.e.",
"e.e.e.e.e.e.e.e.e.e.e.e.e.= & & * - * e.e.e.e.e.e.e.: : < < < < < e.e.e.: : < : : : - - - * e.e.e.e.e.& e.e.e.e.e.e.e.e.e.e.e.e.",
"e.e.e.e.e.e.e.e.e.e.e.e.e.& & & * & e.e.e.e.e.e.e.: - : : : : : e.e.e.e.e.: : - - - - - - e.e.e.e.e.e.e.e.e.e.e.e.e.e.e.e.e.e.e.",
"e.e.e.e.e.e.e.e.e.e.e.e.e.& & & & e.e.e.e.e.e.e.- - - : - : - e.e.e.e.e.e.- - - - - & - e.e.e.e.e.e.e.e.e.e.e.e.e.e.e.e.e.e.e.e.",
"e.e.e.e.e.e.e.e.e.e.e.e.e.e.& % e.e.e.e.e.e.e.- - - - - - - e.e.e.e.e.e.- - - - & - & e.e.e.e.e.e.e.e.e.e.e.e.e.e.e.e.e.e.e.e.e.",
"e.e.e.e.e.e.e.e.e.e.e.e.e.e.e.e.e.e.e.e.e.e.& & & - - - - e.e.e.e.e.e.- - - * * & & e.e.e.e.e.e.e.e.e.e.e.e.e.e.e.e.e.e.e.e.e.e.",
"e.e.e.e.e.e.e.e.e.e.e.e.e.e.e.e.e.e.e.e.e.e.& & & & = & e.e.e.e.e.e.e.- & & & & & e.e.e.e.e.e.e.e.e.e.e.e.e.e.e.e.e.e.e.e.e.e.e.",
"e.e.e.e.e.e.e.e.e.e.e.e.e.e.e.e.e.e.e.e.e.e.e.& & & & e.e.e.e.e.e.e.e.& & & & & e.e.e.e.e.e.e.e.e.e.e.e.e.e.e.e.e.e.e.e.e.e.e.e.",
"e.e.e.e.e.e.e.e.e.e.e.e.e.e.e.e.e.e.e.e.e.e.e.e.& e.e.e.e.e.e.e.e.e.e.e.& % & e.e.e.e.e.e.e.e.e.e.e.e.e.e.e.e.e.e.e.e.e.e.e.e.e.",
"e.e.e.e.e.e.e.e.e.e.e.e.e.e.e.e.e.e.e.e.e.e.e.e.e.e.e.e.e.e.e.e.e.e.e.e.= & e.e.e.e.e.e.e.e.e.e.e.e.e.e.e.e.e.e.e.e.e.e.e.e.e.e.",
"e.e.e.e.e.e.e.e.e.e.e.e.e.e.e.e.e.e.e.e.e.e.e.e.e.e.e.e.e.e.e.e.e.e.e.e.e.e.e.e.e.e.e.e.e.e.e.e.e.e.e.e.e.e.e.e.e.e.e.e.e.e.e.e.",
"e.e.e.e.e.e.e.e.e.e.e.e.e.e.e.e.e.e.e.e.e.e.e.e.e.e.e.e.e.e.e.e.e.e.e.e.e.e.e.e.e.e.e.e.e.e.e.e.e.e.e.e.e.e.e.e.e.e.e.e.e.e.e.e.",
"e.e.e.e.e.e.e.e.e.e.e.e.e.e.e.e.e.e.e.e.e.e.e.e.e.e.e.e.e.e.e.e.e.e.e.e.e.e.e.e.e.e.e.e.e.e.e.e.e.e.e.e.e.e.e.e.e.e.e.e.e.e.e.e."
};
