/* XPM */
static char *f48b9a78ce084929f7febf79720bb55c[] = {
/* columns rows colors chars-per-pixel */
"16 16 116 2 ",
"   c #4E0B3C",
".  c #521340",
"X  c #551845",
"o  c #5D1F4D",
"O  c #602650",
"+  c #612651",
"@  c #612652",
"#  c #632653",
"$  c #652653",
"%  c #642654",
"&  c #652654",
"*  c #642655",
"=  c #652655",
"-  c #662656",
";  c #672656",
":  c #682556",
">  c #682557",
",  c #6A2658",
"<  c #6D265B",
"1  c #6E265B",
"2  c #6E255C",
"3  c #6E265C",
"4  c #6F265C",
"5  c #70265D",
"6  c #72265D",
"7  c #72255E",
"8  c #71265E",
"9  c #752361",
"0  c #772261",
"q  c #742560",
"w  c #762561",
"e  c #752661",
"r  c #762661",
"t  c #762562",
"y  c #782563",
"u  c #782663",
"i  c #792565",
"p  c #7A2564",
"a  c #7B2565",
"s  c #7C2466",
"d  c #7D2567",
"f  c #7E2467",
"g  c #7E2567",
"h  c #7D2767",
"j  c #7D2866",
"k  c #6F3A61",
"l  c #7D436F",
"z  c #851E6B",
"x  c #841F6B",
"c  c #8D1D71",
"v  c #941D77",
"b  c #951F77",
"n  c #951F78",
"m  c #9A197A",
"M  c #9A1A7A",
"N  c #9B1B7B",
"B  c #9B1B7C",
"V  c #9C1B7C",
"C  c #9D1B7C",
"Z  c #9D1B7D",
"A  c #9B1C7C",
"S  c #A0197E",
"D  c #A1197E",
"F  c #A1187F",
"G  c #82236A",
"H  c #83236A",
"J  c #83226B",
"K  c #82246B",
"L  c #85226C",
"P  c #84236C",
"I  c #8B2171",
"U  c #8B2172",
"Y  c #8F2073",
"T  c #8E2173",
"R  c #8B2671",
"E  c #8F2075",
"W  c #892970",
"Q  c #892A70",
"!  c #8C2872",
"~  c #902075",
"^  c #902675",
"/  c #932577",
"(  c #902776",
")  c #932677",
"_  c #923F7D",
"`  c #8F477D",
"'  c #90437D",
"]  c #94407F",
"[  c #855579",
"{  c #974082",
"}  c #974182",
"|  c #964782",
" . c #994181",
".. c #994182",
"X. c #924980",
"o. c #905A83",
"O. c #966F8C",
"+. c #9D7394",
"@. c #9D7995",
"#. c #A06092",
"$. c #A16092",
"%. c #A36295",
"&. c #A36395",
"*. c #A46897",
"=. c #AB72A0",
"-. c #AE8FA7",
";. c #B092A9",
":. c #C492BA",
">. c #C494BB",
",. c #D1B4CD",
"<. c #D8C0D6",
"1. c #DCC4DA",
"2. c #DDC5DB",
"3. c #E3CBE0",
"4. c #E3CCE1",
"5. c None",
/* pixels */
"5.5.5.5.5.5.5.  5.5.5.5.5.5.5.5.",
"5.5.5.5.5.k @.;.-.O.5.5.5.5.5.5.",
"5.5.5.X +.<.3.1.2.4.,.[ 5.5.5.5.",
"5.5.. o.>.*.#.&.&.#.=.:.l 5.5.5.",
"5.5.= X.' ] } } ..{ _ | ` o 5.5.",
"5.+ > h Q ! / / / ( R Q j > 5.5.",
"5.5.5.0 z 5.5.m m v c L 0 1 + 5.",
"5.5.8 p 5.5.C S S A c K p 8 = 5.",
"5.= 8 5.5.E B F F B T K p 3 = 5.",
"5.$ 5.5.K 5.n C C n c K p 1 + 5.",
"5.5.5.t 5.5.I 5.E I L h t , + 5.",
"5.5.= 5.0 h 5.5.L K h t 1 = 5.5.",
"5.5.5.5.8 t 5.y h p t 3 = + 5.5.",
"5.5.5.+ = 5.1 8 5.1 > 5.5.5.5.5.",
"5.5.5.5.5.5.= 5.5.+ 5.5.5.5.5.5.",
"5.5.5.5.5.5.5.5.5.5.5.5.5.5.5.5."
};
