/* XPM */
static char *_8e5b83cff994e99ff001e1a24520c80[] = {
/* columns rows colors chars-per-pixel */
"32 32 88 1 ",
"  c #460132",
". c #490437",
"X c #4A0538",
"o c #4D0C3C",
"O c #51103F",
"+ c #521341",
"@ c #581846",
"# c #5A1C49",
"$ c #5D204D",
"% c #632653",
"& c #682557",
"* c #662B57",
"= c #672658",
"- c #6C265A",
"; c #6B2E5B",
": c #72255E",
"> c #6A315B",
", c #762561",
"< c #7B2565",
"1 c #7A2C66",
"2 c #7E2568",
"3 c #7E2E6A",
"4 c #7F356C",
"5 c #753F68",
"6 c #871F6D",
"7 c #891F6E",
"8 c #8E1F73",
"9 c #931E76",
"0 c #961D79",
"q c #9C1B7C",
"w c #802567",
"e c #83226B",
"r c #89226F",
"t c #85296C",
"y c #8C2272",
"u c #922276",
"i c #912F77",
"p c #942379",
"a c #932E7A",
"s c #8B3273",
"d c #863B73",
"f c #8D3D79",
"g c #943C7D",
"h c #983B7F",
"j c #834072",
"k c #844C77",
"l c #894D7B",
"z c #90427C",
"x c #90487F",
"c c #825276",
"v c #8C567F",
"b c #973B80",
"n c #954C83",
"m c #994C87",
"M c #9C4C88",
"N c #945084",
"B c #975888",
"V c #9D5C8E",
"C c #9F5F91",
"Z c #A25E92",
"A c #9F6291",
"S c #9B7691",
"D c #A06A95",
"F c #A26B98",
"G c #A7729C",
"H c #AB749F",
"J c #A17898",
"K c #AC74A0",
"L c #B385AA",
"P c #B489AC",
"I c #B98FB0",
"U c #BD9BB7",
"Y c #BF92B8",
"T c #C4ABBE",
"R c #C89EC0",
"E c #C7A4C1",
"W c #CFB3CA",
"Q c #D0B3CB",
"! c #D4B5D0",
"~ c #D4BBD1",
"^ c #D8C0D6",
"/ c #DCCDDA",
"( c #E0CBDE",
") c #E2CDE0",
"_ c #E4D6E3",
"` c #E8D5E7",
"' c #E7DCE5",
"] c None",
/* pixels */
"]]]]]]]]]]]]]]]]]]]]]]]]]]]]]]]]",
"]]]]]]]]]]]]]]XXX]]]]]]]]]]]]]]]",
"]]]]]]]]]]]  #>>>*+]]]]]]]]]]]]]",
"]]]]]]]]] >ST/'''_~Pco]]]]]]]]]]",
"]]]]]]]O+J~`(~QQWW^_(U5.]]]]]]]]",
"]]]]]]+%U!ILLPPPPPPPPE~vo]]]]]]]",
"]]]]]#@LYDGHKKKKHKKKHDKRk+]]]]]]",
"]]]]%+lHBVCZZZZZAZZZZAVAK-#]]]]]",
"]]]%$%nNxnmmmMMMMMMmmmnnVj#%]]]]",
"]]]%%&dffzgghhhhbbbbgfffz4%%]]]]",
"]]%%*&tssssiaaaaaaaiissss1&&%]]]",
"]%$%--:ttrr]pppppapuyytet:&&%]]]",
"]]%*]]:<er]]]9q0099987r6<:--&]]]",
"]]]]]],<e]]]]0qqqq098862<,:-&%]]",
"]]]]]:,<]]]]0qqqqqq08yrw<,:-&%]]",
"]]]]-,<]]]]90qqqqqq0urre<,:-&%]]",
"]]]=::]]]]y9qqqqqqqquyre<,:-&%]]",
"]]%=-]]]]rr90qqqqqq08ye22,,-=%]]",
"]]%=]]]]eery00qqqqqu86622,:-*%]]",
"]]]]]]]<<e]]u00000uurre2,::&%%]]",
"]]]]]]:,<]]]yyu9998yre22,:-=%]]]",
"]]]]]-:,]]]rry]]]r6r62<<,:-&%]]]",
"]]]]&=-:,]<ew]]]]rre22<,:-=%%]]]",
"]]]%%=]]:,<<w]]]ew22<<,:--&%]]]]",
"]]]]%]]]:,,]]]]2<<<<<,:--=%]]]]]",
"]]]]]]]&---]]]<<<<,,::--]%%]]]]]",
"]]]]]]%%&]]]],::]]-:---]]]]]]]]]",
"]]]]]]]$%]]]---]]]----]]]]]]]]]]",
"]]]]]]]]]]]&=*]]]-*&%]]]]]]]]]]]",
"]]]]]]]]]]]]%]]]]]%%]]]]]]]]]]]]",
"]]]]]]]]]]]]]]]]]]$]]]]]]]]]]]]]",
"]]]]]]]]]]]]]]]]]]]]]]]]]]]]]]]]"
};
